<mxfile host="www.draw.io" modified="2020-03-10T07:18:27.506Z" agent="Mozilla/5.0 (Windows NT 10.0; Win64; x64) AppleWebKit/537.36 (KHTML, like Gecko) Chrome/80.0.3987.106 Safari/537.36" etag="tRQ12MqxLQJXLe3ICY5H" version="12.8.2" type="github">
  <diagram id="iRymewiH79jELuAZ1aKH" name="Cortex">
    <mxGraphModel dx="981" dy="1701" grid="1" gridSize="10" guides="1" tooltips="1" connect="1" arrows="1" fold="1" page="1" pageScale="1" pageWidth="827" pageHeight="1169" math="0" shadow="0">
      <root>
        <mxCell id="0" />
        <mxCell id="1" parent="0" />
        <mxCell id="F0HcZFXE1beLXUN7yPTD-1" value="Cortex" style="swimlane;fontStyle=1;align=center;verticalAlign=top;childLayout=stackLayout;horizontal=1;startSize=26;horizontalStack=0;resizeParent=1;resizeParentMax=0;resizeLast=0;collapsible=1;marginBottom=0;" parent="1" vertex="1">
          <mxGeometry x="40" y="316" width="160" height="86" as="geometry" />
        </mxCell>
        <mxCell id="F0HcZFXE1beLXUN7yPTD-2" value="+ content" style="text;strokeColor=none;fillColor=none;align=left;verticalAlign=top;spacingLeft=4;spacingRight=4;overflow=hidden;rotatable=0;points=[[0,0.5],[1,0.5]];portConstraint=eastwest;" parent="F0HcZFXE1beLXUN7yPTD-1" vertex="1">
          <mxGeometry y="26" width="160" height="26" as="geometry" />
        </mxCell>
        <mxCell id="F0HcZFXE1beLXUN7yPTD-3" value="" style="line;strokeWidth=1;fillColor=none;align=left;verticalAlign=middle;spacingTop=-1;spacingLeft=3;spacingRight=3;rotatable=0;labelPosition=right;points=[];portConstraint=eastwest;" parent="F0HcZFXE1beLXUN7yPTD-1" vertex="1">
          <mxGeometry y="52" width="160" height="8" as="geometry" />
        </mxCell>
        <mxCell id="F0HcZFXE1beLXUN7yPTD-4" value=" " style="text;strokeColor=none;fillColor=none;align=left;verticalAlign=top;spacingLeft=4;spacingRight=4;overflow=hidden;rotatable=0;points=[[0,0.5],[1,0.5]];portConstraint=eastwest;" parent="F0HcZFXE1beLXUN7yPTD-1" vertex="1">
          <mxGeometry y="60" width="160" height="26" as="geometry" />
        </mxCell>
        <mxCell id="U1af7vYA9oy-of9_Sick-2" value="Distributor" style="swimlane;fontStyle=1;align=center;verticalAlign=top;childLayout=stackLayout;horizontal=1;startSize=26;horizontalStack=0;resizeParent=1;resizeParentMax=0;resizeLast=0;collapsible=1;marginBottom=0;" vertex="1" parent="1">
          <mxGeometry x="300" y="230" width="160" height="86" as="geometry" />
        </mxCell>
        <mxCell id="U1af7vYA9oy-of9_Sick-3" value="+ content" style="text;strokeColor=none;fillColor=none;align=left;verticalAlign=top;spacingLeft=4;spacingRight=4;overflow=hidden;rotatable=0;points=[[0,0.5],[1,0.5]];portConstraint=eastwest;" vertex="1" parent="U1af7vYA9oy-of9_Sick-2">
          <mxGeometry y="26" width="160" height="26" as="geometry" />
        </mxCell>
        <mxCell id="U1af7vYA9oy-of9_Sick-4" value="" style="line;strokeWidth=1;fillColor=none;align=left;verticalAlign=middle;spacingTop=-1;spacingLeft=3;spacingRight=3;rotatable=0;labelPosition=right;points=[];portConstraint=eastwest;" vertex="1" parent="U1af7vYA9oy-of9_Sick-2">
          <mxGeometry y="52" width="160" height="8" as="geometry" />
        </mxCell>
        <mxCell id="U1af7vYA9oy-of9_Sick-5" value="+ push()" style="text;strokeColor=none;fillColor=none;align=left;verticalAlign=top;spacingLeft=4;spacingRight=4;overflow=hidden;rotatable=0;points=[[0,0.5],[1,0.5]];portConstraint=eastwest;" vertex="1" parent="U1af7vYA9oy-of9_Sick-2">
          <mxGeometry y="60" width="160" height="26" as="geometry" />
        </mxCell>
        <mxCell id="U1af7vYA9oy-of9_Sick-6" value="Querier" style="swimlane;fontStyle=1;align=center;verticalAlign=top;childLayout=stackLayout;horizontal=1;startSize=26;horizontalStack=0;resizeParent=1;resizeParentMax=0;resizeLast=0;collapsible=1;marginBottom=0;" vertex="1" parent="1">
          <mxGeometry x="560" y="402" width="160" height="228" as="geometry" />
        </mxCell>
        <mxCell id="U1af7vYA9oy-of9_Sick-7" value="+ query: String&#xa;+ time: Long&#xa;+ start: Long&#xa;+ end: Long&#xa;+ step: Long&#xa;+ label_name: String" style="text;strokeColor=none;fillColor=none;align=left;verticalAlign=top;spacingLeft=4;spacingRight=4;overflow=hidden;rotatable=0;points=[[0,0.5],[1,0.5]];portConstraint=eastwest;" vertex="1" parent="U1af7vYA9oy-of9_Sick-6">
          <mxGeometry y="26" width="160" height="104" as="geometry" />
        </mxCell>
        <mxCell id="U1af7vYA9oy-of9_Sick-21" value="" style="endArrow=open;endFill=1;endSize=12;html=1;exitX=1.024;exitY=0.69;exitDx=0;exitDy=0;exitPerimeter=0;" edge="1" parent="U1af7vYA9oy-of9_Sick-6" source="U1af7vYA9oy-of9_Sick-11">
          <mxGeometry width="160" relative="1" as="geometry">
            <mxPoint x="-160" y="108" as="sourcePoint" />
            <mxPoint y="108" as="targetPoint" />
          </mxGeometry>
        </mxCell>
        <mxCell id="U1af7vYA9oy-of9_Sick-8" value="" style="line;strokeWidth=1;fillColor=none;align=left;verticalAlign=middle;spacingTop=-1;spacingLeft=3;spacingRight=3;rotatable=0;labelPosition=right;points=[];portConstraint=eastwest;" vertex="1" parent="U1af7vYA9oy-of9_Sick-6">
          <mxGeometry y="130" width="160" height="8" as="geometry" />
        </mxCell>
        <mxCell id="U1af7vYA9oy-of9_Sick-9" value="+ query()&#xa;+ query_range()&#xa;+ series()&#xa;+ labels()&#xa;+ values()&#xa;" style="text;strokeColor=none;fillColor=none;align=left;verticalAlign=top;spacingLeft=4;spacingRight=4;overflow=hidden;rotatable=0;points=[[0,0.5],[1,0.5]];portConstraint=eastwest;" vertex="1" parent="U1af7vYA9oy-of9_Sick-6">
          <mxGeometry y="138" width="160" height="90" as="geometry" />
        </mxCell>
        <mxCell id="U1af7vYA9oy-of9_Sick-10" value="QueryFronted" style="swimlane;fontStyle=1;align=center;verticalAlign=top;childLayout=stackLayout;horizontal=1;startSize=26;horizontalStack=0;resizeParent=1;resizeParentMax=0;resizeLast=0;collapsible=1;marginBottom=0;" vertex="1" parent="1">
          <mxGeometry x="300" y="402" width="160" height="86" as="geometry" />
        </mxCell>
        <mxCell id="U1af7vYA9oy-of9_Sick-11" value=" " style="text;strokeColor=none;fillColor=none;align=left;verticalAlign=top;spacingLeft=4;spacingRight=4;overflow=hidden;rotatable=0;points=[[0,0.5],[1,0.5]];portConstraint=eastwest;" vertex="1" parent="U1af7vYA9oy-of9_Sick-10">
          <mxGeometry y="26" width="160" height="26" as="geometry" />
        </mxCell>
        <mxCell id="U1af7vYA9oy-of9_Sick-12" value="" style="line;strokeWidth=1;fillColor=none;align=left;verticalAlign=middle;spacingTop=-1;spacingLeft=3;spacingRight=3;rotatable=0;labelPosition=right;points=[];portConstraint=eastwest;" vertex="1" parent="U1af7vYA9oy-of9_Sick-10">
          <mxGeometry y="52" width="160" height="8" as="geometry" />
        </mxCell>
        <mxCell id="U1af7vYA9oy-of9_Sick-13" value=" " style="text;strokeColor=none;fillColor=none;align=left;verticalAlign=top;spacingLeft=4;spacingRight=4;overflow=hidden;rotatable=0;points=[[0,0.5],[1,0.5]];portConstraint=eastwest;" vertex="1" parent="U1af7vYA9oy-of9_Sick-10">
          <mxGeometry y="60" width="160" height="26" as="geometry" />
        </mxCell>
        <mxCell id="U1af7vYA9oy-of9_Sick-14" value="Ingester" style="swimlane;fontStyle=1;align=center;verticalAlign=top;childLayout=stackLayout;horizontal=1;startSize=26;horizontalStack=0;resizeParent=1;resizeParentMax=0;resizeLast=0;collapsible=1;marginBottom=0;" vertex="1" parent="1">
          <mxGeometry x="560" y="224" width="160" height="86" as="geometry" />
        </mxCell>
        <mxCell id="U1af7vYA9oy-of9_Sick-15" value=" " style="text;strokeColor=none;fillColor=none;align=left;verticalAlign=top;spacingLeft=4;spacingRight=4;overflow=hidden;rotatable=0;points=[[0,0.5],[1,0.5]];portConstraint=eastwest;" vertex="1" parent="U1af7vYA9oy-of9_Sick-14">
          <mxGeometry y="26" width="160" height="26" as="geometry" />
        </mxCell>
        <mxCell id="U1af7vYA9oy-of9_Sick-16" value="" style="line;strokeWidth=1;fillColor=none;align=left;verticalAlign=middle;spacingTop=-1;spacingLeft=3;spacingRight=3;rotatable=0;labelPosition=right;points=[];portConstraint=eastwest;" vertex="1" parent="U1af7vYA9oy-of9_Sick-14">
          <mxGeometry y="52" width="160" height="8" as="geometry" />
        </mxCell>
        <mxCell id="U1af7vYA9oy-of9_Sick-17" value=" " style="text;strokeColor=none;fillColor=none;align=left;verticalAlign=top;spacingLeft=4;spacingRight=4;overflow=hidden;rotatable=0;points=[[0,0.5],[1,0.5]];portConstraint=eastwest;" vertex="1" parent="U1af7vYA9oy-of9_Sick-14">
          <mxGeometry y="60" width="160" height="26" as="geometry" />
        </mxCell>
        <mxCell id="U1af7vYA9oy-of9_Sick-19" value="" style="endArrow=diamondThin;endFill=0;endSize=24;html=1;exitX=0;exitY=0.5;exitDx=0;exitDy=0;entryX=1;entryY=0.5;entryDx=0;entryDy=0;" edge="1" parent="1" source="U1af7vYA9oy-of9_Sick-3" target="F0HcZFXE1beLXUN7yPTD-2">
          <mxGeometry width="160" relative="1" as="geometry">
            <mxPoint x="210" y="358.66" as="sourcePoint" />
            <mxPoint x="370" y="358.66" as="targetPoint" />
          </mxGeometry>
        </mxCell>
        <mxCell id="U1af7vYA9oy-of9_Sick-20" value="" style="endArrow=diamondThin;endFill=0;endSize=24;html=1;exitX=0;exitY=0.5;exitDx=0;exitDy=0;entryX=1.007;entryY=0.735;entryDx=0;entryDy=0;entryPerimeter=0;" edge="1" parent="1" source="U1af7vYA9oy-of9_Sick-11" target="F0HcZFXE1beLXUN7yPTD-2">
          <mxGeometry width="160" relative="1" as="geometry">
            <mxPoint x="300" y="299.9999999999999" as="sourcePoint" />
            <mxPoint x="200" y="385.9999999999999" as="targetPoint" />
          </mxGeometry>
        </mxCell>
        <mxCell id="U1af7vYA9oy-of9_Sick-22" value="Config API" style="swimlane;fontStyle=1;align=center;verticalAlign=top;childLayout=stackLayout;horizontal=1;startSize=26;horizontalStack=0;resizeParent=1;resizeParentMax=0;resizeLast=0;collapsible=1;marginBottom=0;" vertex="1" parent="1">
          <mxGeometry x="300" y="100" width="160" height="86" as="geometry" />
        </mxCell>
        <mxCell id="U1af7vYA9oy-of9_Sick-23" value="+ content" style="text;strokeColor=none;fillColor=none;align=left;verticalAlign=top;spacingLeft=4;spacingRight=4;overflow=hidden;rotatable=0;points=[[0,0.5],[1,0.5]];portConstraint=eastwest;" vertex="1" parent="U1af7vYA9oy-of9_Sick-22">
          <mxGeometry y="26" width="160" height="26" as="geometry" />
        </mxCell>
        <mxCell id="U1af7vYA9oy-of9_Sick-24" value="" style="line;strokeWidth=1;fillColor=none;align=left;verticalAlign=middle;spacingTop=-1;spacingLeft=3;spacingRight=3;rotatable=0;labelPosition=right;points=[];portConstraint=eastwest;" vertex="1" parent="U1af7vYA9oy-of9_Sick-22">
          <mxGeometry y="52" width="160" height="8" as="geometry" />
        </mxCell>
        <mxCell id="U1af7vYA9oy-of9_Sick-25" value="+ push()" style="text;strokeColor=none;fillColor=none;align=left;verticalAlign=top;spacingLeft=4;spacingRight=4;overflow=hidden;rotatable=0;points=[[0,0.5],[1,0.5]];portConstraint=eastwest;" vertex="1" parent="U1af7vYA9oy-of9_Sick-22">
          <mxGeometry y="60" width="160" height="26" as="geometry" />
        </mxCell>
        <mxCell id="U1af7vYA9oy-of9_Sick-26" value="" style="endArrow=open;endFill=1;endSize=12;html=1;exitX=1.024;exitY=0.69;exitDx=0;exitDy=0;exitPerimeter=0;entryX=-0.015;entryY=0.745;entryDx=0;entryDy=0;entryPerimeter=0;" edge="1" parent="1" target="U1af7vYA9oy-of9_Sick-15">
          <mxGeometry width="160" relative="1" as="geometry">
            <mxPoint x="460.00000000000017" y="269.99999999999994" as="sourcePoint" />
            <mxPoint x="556.16" y="334.06" as="targetPoint" />
          </mxGeometry>
        </mxCell>
        <mxCell id="U1af7vYA9oy-of9_Sick-27" value="" style="endArrow=open;endFill=1;endSize=12;html=1;exitX=0;exitY=0.5;exitDx=0;exitDy=0;entryX=0.998;entryY=0.846;entryDx=0;entryDy=0;entryPerimeter=0;" edge="1" parent="1" source="U1af7vYA9oy-of9_Sick-29">
          <mxGeometry width="160" relative="1" as="geometry">
            <mxPoint x="460.3200000000002" y="133.28999999999988" as="sourcePoint" />
            <mxPoint x="460.00000000000006" y="137.99599999999998" as="targetPoint" />
          </mxGeometry>
        </mxCell>
        <mxCell id="U1af7vYA9oy-of9_Sick-28" value="Ruler" style="swimlane;fontStyle=1;align=center;verticalAlign=top;childLayout=stackLayout;horizontal=1;startSize=26;horizontalStack=0;resizeParent=1;resizeParentMax=0;resizeLast=0;collapsible=1;marginBottom=0;" vertex="1" parent="1">
          <mxGeometry x="560.32" y="100" width="160" height="86" as="geometry" />
        </mxCell>
        <mxCell id="U1af7vYA9oy-of9_Sick-29" value=" " style="text;strokeColor=none;fillColor=none;align=left;verticalAlign=top;spacingLeft=4;spacingRight=4;overflow=hidden;rotatable=0;points=[[0,0.5],[1,0.5]];portConstraint=eastwest;" vertex="1" parent="U1af7vYA9oy-of9_Sick-28">
          <mxGeometry y="26" width="160" height="26" as="geometry" />
        </mxCell>
        <mxCell id="U1af7vYA9oy-of9_Sick-39" value="" style="endArrow=open;endFill=1;endSize=12;html=1;exitX=0.5;exitY=0;exitDx=0;exitDy=0;" edge="1" parent="U1af7vYA9oy-of9_Sick-28" target="U1af7vYA9oy-of9_Sick-14">
          <mxGeometry width="160" relative="1" as="geometry">
            <mxPoint x="80.6400000000001" y="86" as="sourcePoint" />
            <mxPoint x="79.3599999999999" y="31.895999999999958" as="targetPoint" />
          </mxGeometry>
        </mxCell>
        <mxCell id="U1af7vYA9oy-of9_Sick-30" value="" style="line;strokeWidth=1;fillColor=none;align=left;verticalAlign=middle;spacingTop=-1;spacingLeft=3;spacingRight=3;rotatable=0;labelPosition=right;points=[];portConstraint=eastwest;" vertex="1" parent="U1af7vYA9oy-of9_Sick-28">
          <mxGeometry y="52" width="160" height="8" as="geometry" />
        </mxCell>
        <mxCell id="U1af7vYA9oy-of9_Sick-31" value=" " style="text;strokeColor=none;fillColor=none;align=left;verticalAlign=top;spacingLeft=4;spacingRight=4;overflow=hidden;rotatable=0;points=[[0,0.5],[1,0.5]];portConstraint=eastwest;" vertex="1" parent="U1af7vYA9oy-of9_Sick-28">
          <mxGeometry y="60" width="160" height="26" as="geometry" />
        </mxCell>
        <mxCell id="U1af7vYA9oy-of9_Sick-33" value="Altermanager" style="swimlane;fontStyle=1;align=center;verticalAlign=top;childLayout=stackLayout;horizontal=1;startSize=26;horizontalStack=0;resizeParent=1;resizeParentMax=0;resizeLast=0;collapsible=1;marginBottom=0;" vertex="1" parent="1">
          <mxGeometry x="560.3199999999999" y="-40" width="160" height="86" as="geometry" />
        </mxCell>
        <mxCell id="U1af7vYA9oy-of9_Sick-34" value=" " style="text;strokeColor=none;fillColor=none;align=left;verticalAlign=top;spacingLeft=4;spacingRight=4;overflow=hidden;rotatable=0;points=[[0,0.5],[1,0.5]];portConstraint=eastwest;" vertex="1" parent="U1af7vYA9oy-of9_Sick-33">
          <mxGeometry y="26" width="160" height="26" as="geometry" />
        </mxCell>
        <mxCell id="U1af7vYA9oy-of9_Sick-35" value="" style="line;strokeWidth=1;fillColor=none;align=left;verticalAlign=middle;spacingTop=-1;spacingLeft=3;spacingRight=3;rotatable=0;labelPosition=right;points=[];portConstraint=eastwest;" vertex="1" parent="U1af7vYA9oy-of9_Sick-33">
          <mxGeometry y="52" width="160" height="8" as="geometry" />
        </mxCell>
        <mxCell id="U1af7vYA9oy-of9_Sick-36" value=" " style="text;strokeColor=none;fillColor=none;align=left;verticalAlign=top;spacingLeft=4;spacingRight=4;overflow=hidden;rotatable=0;points=[[0,0.5],[1,0.5]];portConstraint=eastwest;" vertex="1" parent="U1af7vYA9oy-of9_Sick-33">
          <mxGeometry y="60" width="160" height="26" as="geometry" />
        </mxCell>
        <mxCell id="U1af7vYA9oy-of9_Sick-37" value="" style="endArrow=open;endFill=1;endSize=12;html=1;exitX=0.5;exitY=0;exitDx=0;exitDy=0;entryX=0.492;entryY=0.996;entryDx=0;entryDy=0;entryPerimeter=0;" edge="1" parent="1" source="U1af7vYA9oy-of9_Sick-28" target="U1af7vYA9oy-of9_Sick-36">
          <mxGeometry width="160" relative="1" as="geometry">
            <mxPoint x="640.3200000000002" y="91" as="sourcePoint" />
            <mxPoint x="540" y="89.99600000000032" as="targetPoint" />
          </mxGeometry>
        </mxCell>
        <mxCell id="U1af7vYA9oy-of9_Sick-38" value="" style="endArrow=open;endFill=1;endSize=12;html=1;exitX=0;exitY=0.5;exitDx=0;exitDy=0;entryX=0.5;entryY=0;entryDx=0;entryDy=0;" edge="1" parent="1" target="U1af7vYA9oy-of9_Sick-22">
          <mxGeometry width="160" relative="1" as="geometry">
            <mxPoint x="560.0000000000001" y="1" as="sourcePoint" />
            <mxPoint x="459.68" y="-0.003999999999678039" as="targetPoint" />
          </mxGeometry>
        </mxCell>
        <mxCell id="U1af7vYA9oy-of9_Sick-40" value="" style="endArrow=open;endFill=1;endSize=12;html=1;exitX=0.5;exitY=0;exitDx=0;exitDy=0;" edge="1" parent="1" source="U1af7vYA9oy-of9_Sick-6" target="U1af7vYA9oy-of9_Sick-17">
          <mxGeometry width="160" relative="1" as="geometry">
            <mxPoint x="630.0000000000002" y="402.63" as="sourcePoint" />
            <mxPoint x="727.5999999999999" y="401.9999999999999" as="targetPoint" />
          </mxGeometry>
        </mxCell>
        <mxCell id="U1af7vYA9oy-of9_Sick-41" value="Cassandra" style="swimlane;fontStyle=1;align=center;verticalAlign=top;childLayout=stackLayout;horizontal=1;startSize=26;horizontalStack=0;resizeParent=1;resizeParentMax=0;resizeLast=0;collapsible=1;marginBottom=0;" vertex="1" parent="1">
          <mxGeometry x="820" y="224" width="160" height="86" as="geometry" />
        </mxCell>
        <mxCell id="U1af7vYA9oy-of9_Sick-42" value=" " style="text;strokeColor=none;fillColor=none;align=left;verticalAlign=top;spacingLeft=4;spacingRight=4;overflow=hidden;rotatable=0;points=[[0,0.5],[1,0.5]];portConstraint=eastwest;" vertex="1" parent="U1af7vYA9oy-of9_Sick-41">
          <mxGeometry y="26" width="160" height="26" as="geometry" />
        </mxCell>
        <mxCell id="U1af7vYA9oy-of9_Sick-43" value="" style="line;strokeWidth=1;fillColor=none;align=left;verticalAlign=middle;spacingTop=-1;spacingLeft=3;spacingRight=3;rotatable=0;labelPosition=right;points=[];portConstraint=eastwest;" vertex="1" parent="U1af7vYA9oy-of9_Sick-41">
          <mxGeometry y="52" width="160" height="8" as="geometry" />
        </mxCell>
        <mxCell id="U1af7vYA9oy-of9_Sick-44" value=" " style="text;strokeColor=none;fillColor=none;align=left;verticalAlign=top;spacingLeft=4;spacingRight=4;overflow=hidden;rotatable=0;points=[[0,0.5],[1,0.5]];portConstraint=eastwest;" vertex="1" parent="U1af7vYA9oy-of9_Sick-41">
          <mxGeometry y="60" width="160" height="26" as="geometry" />
        </mxCell>
        <mxCell id="U1af7vYA9oy-of9_Sick-45" value="" style="endArrow=open;endFill=1;endSize=12;html=1;exitX=1.024;exitY=0.69;exitDx=0;exitDy=0;exitPerimeter=0;entryX=-0.015;entryY=0.745;entryDx=0;entryDy=0;entryPerimeter=0;" edge="1" parent="1">
          <mxGeometry width="160" relative="1" as="geometry">
            <mxPoint x="720.0000000000002" y="267.29" as="sourcePoint" />
            <mxPoint x="817.5999999999999" y="266.6599999999999" as="targetPoint" />
          </mxGeometry>
        </mxCell>
      </root>
    </mxGraphModel>
  </diagram>
</mxfile>
